STARTFONT 2.1
FONT -URW-ITC Bookman-Demi-R-Normal--10-100-72-72-P-60-ISO8859-1
SIZE 10 72 72
FONTBOUNDINGBOX 17 12 -4 -2

STARTPROPERTIES 22
FONTNAME_REGISTRY "-"
FOUNDRY "URW"
FAMILY_NAME "ITC Bookman"
WEIGHT_NAME "Demi"
SLANT "R"
SETWIDTH_NAME "Normal"
ADD_STYLE_NAME ""
PIXEL_SIZE 10
POINT_SIZE 100
RESOLUTION_X 72
RESOLUTION_Y 72
SPACING "P"
CHARSET_REGISTRY "ISO8859"
CHARSET_ENCODING "1"
FULL_NAME "Bookman-Demi"
AVERAGE_WIDTH 60
WEIGHT 10
X_HEIGHT 6
QUAD_WIDTH 7
DEFAULT_CHAR 32
FONT_DESCENT 2
FONT_ASCENT 10
ENDPROPERTIES

CHARS 190

STARTCHAR space
ENCODING 32
SWIDTH 340 0
DWIDTH 3 0
BBX 1 1 0 0
BITMAP
00
ENDCHAR

STARTCHAR exclam
ENCODING 33
SWIDTH 360 0
DWIDTH 4 0
BBX 2 8 1 0
BITMAP
C0
C0
C0
80
80
40
C0
C0
ENDCHAR

STARTCHAR quotedbl
ENCODING 34
SWIDTH 420 0
DWIDTH 4 0
BBX 3 3 0 5
BITMAP
A0
A0
A0
ENDCHAR

STARTCHAR numbersign
ENCODING 35
SWIDTH 660 0
DWIDTH 6 0
BBX 5 8 1 0
BITMAP
10
50
F8
50
F8
50
50
40
ENDCHAR

STARTCHAR dollar
ENCODING 36
SWIDTH 660 0
DWIDTH 7 0
BBX 7 10 0 -1
BITMAP
10
7C
C6
C0
F8
3E
06
C6
FC
10
ENDCHAR

STARTCHAR percent
ENCODING 37
SWIDTH 940 0
DWIDTH 9 0
BBX 8 8 1 0
BITMAP
44
A8
A8
B6
59
29
29
46
ENDCHAR

STARTCHAR ampersand
ENCODING 38
SWIDTH 800 0
DWIDTH 8 0
BBX 8 8 0 0
BITMAP
38
68
7F
52
DA
CC
CC
77
ENDCHAR

STARTCHAR quoteright
ENCODING 39
SWIDTH 320 0
DWIDTH 3 0
BBX 2 3 1 5
BITMAP
C0
C0
80
ENDCHAR

STARTCHAR parenleft
ENCODING 40
SWIDTH 320 0
DWIDTH 3 0
BBX 2 9 1 -1
BITMAP
40
C0
C0
C0
C0
C0
C0
C0
40
ENDCHAR

STARTCHAR parenright
ENCODING 41
SWIDTH 320 0
DWIDTH 3 0
BBX 2 9 0 -1
BITMAP
80
C0
C0
C0
C0
C0
C0
C0
80
ENDCHAR

STARTCHAR asterisk
ENCODING 42
SWIDTH 460 0
DWIDTH 5 0
BBX 4 4 1 3
BITMAP
60
F0
F0
60
ENDCHAR

STARTCHAR plus
ENCODING 43
SWIDTH 600 0
DWIDTH 6 0
BBX 5 5 1 2
BITMAP
20
20
F8
20
20
ENDCHAR

STARTCHAR comma
ENCODING 44
SWIDTH 340 0
DWIDTH 3 0
BBX 2 3 1 -1
BITMAP
C0
C0
80
ENDCHAR

STARTCHAR minus
ENCODING 45
SWIDTH 600 0
DWIDTH 6 0
BBX 5 1 1 4
BITMAP
F8
ENDCHAR

STARTCHAR period
ENCODING 46
SWIDTH 340 0
DWIDTH 3 0
BBX 2 2 1 0
BITMAP
C0
C0
ENDCHAR

STARTCHAR slash
ENCODING 47
SWIDTH 600 0
DWIDTH 6 0
BBX 5 9 1 -1
BITMAP
18
18
10
30
20
60
40
40
C0
ENDCHAR

STARTCHAR zero
ENCODING 48
SWIDTH 660 0
DWIDTH 7 0
BBX 6 8 0 0
BITMAP
78
48
CC
CC
CC
CC
48
78
ENDCHAR

STARTCHAR one
ENCODING 49
SWIDTH 660 0
DWIDTH 7 0
BBX 4 8 2 0
BITMAP
E0
60
60
60
60
60
60
F0
ENDCHAR

STARTCHAR two
ENCODING 50
SWIDTH 660 0
DWIDTH 7 0
BBX 6 8 0 0
BITMAP
78
CC
CC
0C
18
64
FC
F8
ENDCHAR

STARTCHAR three
ENCODING 51
SWIDTH 660 0
DWIDTH 7 0
BBX 6 8 0 0
BITMAP
78
CC
CC
38
0C
CC
CC
78
ENDCHAR

STARTCHAR four
ENCODING 52
SWIDTH 660 0
DWIDTH 7 0
BBX 6 8 0 0
BITMAP
18
38
38
58
98
FC
18
3C
ENDCHAR

STARTCHAR five
ENCODING 53
SWIDTH 660 0
DWIDTH 7 0
BBX 6 8 0 0
BITMAP
F8
F8
80
F8
8C
0C
8C
78
ENDCHAR

STARTCHAR six
ENCODING 54
SWIDTH 660 0
DWIDTH 7 0
BBX 6 8 0 0
BITMAP
38
6C
C0
F8
CC
CC
CC
78
ENDCHAR

STARTCHAR seven
ENCODING 55
SWIDTH 660 0
DWIDTH 7 0
BBX 6 8 0 0
BITMAP
FC
8C
08
10
30
20
60
60
ENDCHAR

STARTCHAR eight
ENCODING 56
SWIDTH 660 0
DWIDTH 7 0
BBX 6 8 0 0
BITMAP
70
C8
E8
F0
9C
8C
8C
78
ENDCHAR

STARTCHAR nine
ENCODING 57
SWIDTH 660 0
DWIDTH 7 0
BBX 6 8 0 0
BITMAP
78
CC
CC
CC
7C
0C
D8
F0
ENDCHAR

STARTCHAR colon
ENCODING 58
SWIDTH 340 0
DWIDTH 3 0
BBX 2 6 1 0
BITMAP
C0
C0
00
00
C0
C0
ENDCHAR

STARTCHAR semicolon
ENCODING 59
SWIDTH 340 0
DWIDTH 3 0
BBX 2 7 1 -1
BITMAP
C0
C0
00
00
C0
C0
80
ENDCHAR

STARTCHAR less
ENCODING 60
SWIDTH 600 0
DWIDTH 6 0
BBX 5 6 1 0
BITMAP
08
30
C0
C0
30
08
ENDCHAR

STARTCHAR equal
ENCODING 61
SWIDTH 600 0
DWIDTH 6 0
BBX 5 3 1 3
BITMAP
F8
00
F8
ENDCHAR

STARTCHAR greater
ENCODING 62
SWIDTH 600 0
DWIDTH 6 0
BBX 6 6 0 0
BITMAP
C0
30
0C
0C
30
C0
ENDCHAR

STARTCHAR question
ENCODING 63
SWIDTH 660 0
DWIDTH 7 0
BBX 6 8 0 0
BITMAP
78
CC
CC
1C
38
30
30
30
ENDCHAR

STARTCHAR at
ENCODING 64
SWIDTH 820 0
DWIDTH 8 0
BBX 7 8 1 0
BITMAP
38
44
9A
AA
AA
BE
44
38
ENDCHAR

STARTCHAR A
ENCODING 65
SWIDTH 720 0
DWIDTH 7 0
BBX 8 8 0 0
BITMAP
18
1C
3C
2C
7E
46
46
EF
ENDCHAR

STARTCHAR B
ENCODING 66
SWIDTH 720 0
DWIDTH 7 0
BBX 7 8 0 0
BITMAP
FC
66
66
7C
66
66
66
FC
ENDCHAR

STARTCHAR C
ENCODING 67
SWIDTH 740 0
DWIDTH 7 0
BBX 7 8 0 0
BITMAP
3C
66
C2
C0
C0
C2
66
38
ENDCHAR

STARTCHAR D
ENCODING 68
SWIDTH 780 0
DWIDTH 8 0
BBX 8 8 0 0
BITMAP
FC
66
63
63
63
63
66
FC
ENDCHAR

STARTCHAR E
ENCODING 69
SWIDTH 720 0
DWIDTH 7 0
BBX 7 8 0 0
BITMAP
FC
62
6A
78
68
62
62
FC
ENDCHAR

STARTCHAR F
ENCODING 70
SWIDTH 680 0
DWIDTH 7 0
BBX 7 8 0 0
BITMAP
FC
66
6A
78
68
60
60
F0
ENDCHAR

STARTCHAR G
ENCODING 71
SWIDTH 780 0
DWIDTH 8 0
BBX 8 8 0 0
BITMAP
3E
66
C2
C0
CF
C6
66
3A
ENDCHAR

STARTCHAR H
ENCODING 72
SWIDTH 820 0
DWIDTH 8 0
BBX 8 8 0 0
BITMAP
FF
66
66
7E
66
66
66
FF
ENDCHAR

STARTCHAR I
ENCODING 73
SWIDTH 400 0
DWIDTH 4 0
BBX 4 8 0 0
BITMAP
F0
60
60
60
60
60
60
F0
ENDCHAR

STARTCHAR J
ENCODING 74
SWIDTH 640 0
DWIDTH 6 0
BBX 7 8 0 0
BITMAP
1E
0C
0C
0C
0C
CC
CC
78
ENDCHAR

STARTCHAR K
ENCODING 75
SWIDTH 800 0
DWIDTH 8 0
BBX 8 8 0 0
BITMAP
FF
66
68
7C
6C
6E
66
FF
ENDCHAR

STARTCHAR L
ENCODING 76
SWIDTH 640 0
DWIDTH 6 0
BBX 7 8 0 0
BITMAP
F0
60
60
60
60
62
66
FC
ENDCHAR

STARTCHAR M
ENCODING 77
SWIDTH 940 0
DWIDTH 9 0
BBX 9 8 0 0
BITMAP
E380
7700
7700
7700
5F00
5B00
5B00
FF80
ENDCHAR

STARTCHAR N
ENCODING 78
SWIDTH 740 0
DWIDTH 7 0
BBX 7 8 0 0
BITMAP
EE
74
74
7C
5C
5C
4C
EC
ENDCHAR

STARTCHAR O
ENCODING 79
SWIDTH 800 0
DWIDTH 8 0
BBX 7 8 1 0
BITMAP
38
6C
C6
C6
C6
C6
6C
38
ENDCHAR

STARTCHAR P
ENCODING 80
SWIDTH 660 0
DWIDTH 7 0
BBX 7 8 0 0
BITMAP
FC
66
66
66
7C
60
60
F0
ENDCHAR

STARTCHAR Q
ENCODING 81
SWIDTH 800 0
DWIDTH 8 0
BBX 7 10 1 -2
BITMAP
38
6C
C6
C6
C6
DC
7E
B6
C6
7C
ENDCHAR

STARTCHAR R
ENCODING 82
SWIDTH 780 0
DWIDTH 8 0
BBX 8 8 0 0
BITMAP
FC
66
66
7E
7C
6C
6E
F7
ENDCHAR

STARTCHAR S
ENCODING 83
SWIDTH 660 0
DWIDTH 7 0
BBX 7 8 0 0
BITMAP
7C
C6
E0
FC
3E
86
C6
7C
ENDCHAR

STARTCHAR T
ENCODING 84
SWIDTH 700 0
DWIDTH 7 0
BBX 8 8 0 0
BITMAP
7E
99
18
18
18
18
18
3C
ENDCHAR

STARTCHAR U
ENCODING 85
SWIDTH 740 0
DWIDTH 7 0
BBX 7 8 0 0
BITMAP
EE
64
64
64
64
64
64
38
ENDCHAR

STARTCHAR V
ENCODING 86
SWIDTH 720 0
DWIDTH 7 0
BBX 8 8 0 0
BITMAP
F7
66
64
64
34
38
38
18
ENDCHAR

STARTCHAR W
ENCODING 87
SWIDTH 940 0
DWIDTH 9 0
BBX 10 8 0 0
BITMAP
FDC0
6C80
6D00
6D00
6F00
3700
3600
3200
ENDCHAR

STARTCHAR X
ENCODING 88
SWIDTH 780 0
DWIDTH 8 0
BBX 8 8 0 0
BITMAP
FE
64
3C
38
38
2C
4E
EF
ENDCHAR

STARTCHAR Y
ENCODING 89
SWIDTH 700 0
DWIDTH 7 0
BBX 8 8 0 0
BITMAP
F7
62
34
3C
18
18
18
3C
ENDCHAR

STARTCHAR Z
ENCODING 90
SWIDTH 640 0
DWIDTH 6 0
BBX 6 8 0 0
BITMAP
7C
CC
98
30
30
64
CC
F8
ENDCHAR

STARTCHAR bracketleft
ENCODING 91
SWIDTH 300 0
DWIDTH 3 0
BBX 3 9 0 -1
BITMAP
E0
C0
C0
C0
C0
C0
C0
C0
E0
ENDCHAR

STARTCHAR backslash
ENCODING 92
SWIDTH 600 0
DWIDTH 6 0
BBX 5 9 1 -1
BITMAP
C0
40
40
60
20
30
10
10
08
ENDCHAR

STARTCHAR bracketright
ENCODING 93
SWIDTH 300 0
DWIDTH 3 0
BBX 3 9 0 -1
BITMAP
E0
60
60
60
60
60
60
60
E0
ENDCHAR

STARTCHAR asciicircum
ENCODING 94
SWIDTH 600 0
DWIDTH 6 0
BBX 5 5 1 3
BITMAP
20
70
50
88
88
ENDCHAR

STARTCHAR underscore
ENCODING 95
SWIDTH 500 0
DWIDTH 5 0
BBX 5 1 0 -1
BITMAP
F8
ENDCHAR

STARTCHAR quoteleft
ENCODING 96
SWIDTH 320 0
DWIDTH 3 0
BBX 2 3 1 5
BITMAP
40
C0
C0
ENDCHAR

STARTCHAR a
ENCODING 97
SWIDTH 580 0
DWIDTH 6 0
BBX 6 6 0 0
BITMAP
70
D8
D8
D8
D8
6C
ENDCHAR

STARTCHAR b
ENCODING 98
SWIDTH 600 0
DWIDTH 6 0
BBX 6 9 0 0
BITMAP
E0
60
60
78
6C
6C
6C
6C
78
ENDCHAR

STARTCHAR c
ENCODING 99
SWIDTH 580 0
DWIDTH 6 0
BBX 5 6 0 0
BITMAP
78
D8
C0
C0
C8
70
ENDCHAR

STARTCHAR d
ENCODING 100
SWIDTH 640 0
DWIDTH 6 0
BBX 6 9 0 0
BITMAP
38
18
18
78
D8
D8
D8
D8
7C
ENDCHAR

STARTCHAR e
ENCODING 101
SWIDTH 580 0
DWIDTH 6 0
BBX 5 6 0 0
BITMAP
70
D8
F8
C0
C8
70
ENDCHAR

STARTCHAR f
ENCODING 102
SWIDTH 380 0
DWIDTH 4 0
BBX 5 9 0 0
BITMAP
38
68
60
F0
60
60
60
60
F0
ENDCHAR

STARTCHAR g
ENCODING 103
SWIDTH 580 0
DWIDTH 6 0
BBX 6 9 0 -2
BITMAP
0C
7C
D8
D8
78
C0
FC
8C
78
ENDCHAR

STARTCHAR h
ENCODING 104
SWIDTH 680 0
DWIDTH 7 0
BBX 7 9 0 0
BITMAP
E0
60
60
7C
6C
6C
6C
6C
FE
ENDCHAR

STARTCHAR i
ENCODING 105
SWIDTH 360 0
DWIDTH 4 0
BBX 4 9 0 0
BITMAP
60
60
00
F0
60
60
60
60
F0
ENDCHAR

STARTCHAR j
ENCODING 106
SWIDTH 340 0
DWIDTH 3 0
BBX 4 11 0 -2
BITMAP
30
30
00
70
30
30
30
30
30
B0
E0
ENDCHAR

STARTCHAR k
ENCODING 107
SWIDTH 660 0
DWIDTH 7 0
BBX 7 9 0 0
BITMAP
E0
60
60
7E
7C
78
7C
7C
FE
ENDCHAR

STARTCHAR l
ENCODING 108
SWIDTH 340 0
DWIDTH 3 0
BBX 4 9 0 0
BITMAP
E0
60
60
60
60
60
60
60
F0
ENDCHAR

STARTCHAR m
ENCODING 109
SWIDTH 1000 0
DWIDTH 10 0
BBX 10 6 0 0
BITMAP
FF80
6D80
6D80
6D80
6D80
FFC0
ENDCHAR

STARTCHAR n
ENCODING 110
SWIDTH 680 0
DWIDTH 7 0
BBX 7 6 0 0
BITMAP
FC
6C
6C
6C
6C
FE
ENDCHAR

STARTCHAR o
ENCODING 111
SWIDTH 620 0
DWIDTH 6 0
BBX 6 6 0 0
BITMAP
78
CC
CC
CC
CC
78
ENDCHAR

STARTCHAR p
ENCODING 112
SWIDTH 640 0
DWIDTH 6 0
BBX 7 8 0 -2
BITMAP
FC
66
66
66
66
7C
60
F0
ENDCHAR

STARTCHAR q
ENCODING 113
SWIDTH 620 0
DWIDTH 6 0
BBX 7 8 0 -2
BITMAP
7C
CC
CC
CC
CC
7C
0C
1E
ENDCHAR

STARTCHAR r
ENCODING 114
SWIDTH 460 0
DWIDTH 5 0
BBX 5 6 0 0
BITMAP
F8
F8
60
60
60
F0
ENDCHAR

STARTCHAR s
ENCODING 115
SWIDTH 520 0
DWIDTH 5 0
BBX 4 6 1 0
BITMAP
70
90
E0
F0
30
E0
ENDCHAR

STARTCHAR t
ENCODING 116
SWIDTH 460 0
DWIDTH 5 0
BBX 5 8 0 0
BITMAP
20
60
F0
60
60
60
68
70
ENDCHAR

STARTCHAR u
ENCODING 117
SWIDTH 660 0
DWIDTH 7 0
BBX 7 6 0 0
BITMAP
FC
6C
6C
6C
6C
7E
ENDCHAR

STARTCHAR v
ENCODING 118
SWIDTH 600 0
DWIDTH 6 0
BBX 6 6 0 0
BITMAP
FC
E8
68
78
30
30
ENDCHAR

STARTCHAR w
ENCODING 119
SWIDTH 800 0
DWIDTH 8 0
BBX 8 6 0 0
BITMAP
FF
DB
5A
7E
7E
34
ENDCHAR

STARTCHAR x
ENCODING 120
SWIDTH 600 0
DWIDTH 6 0
BBX 6 6 0 0
BITMAP
FC
68
30
30
58
DC
ENDCHAR

STARTCHAR y
ENCODING 121
SWIDTH 620 0
DWIDTH 6 0
BBX 6 8 0 -2
BITMAP
FC
68
78
30
30
20
E0
C0
ENDCHAR

STARTCHAR z
ENCODING 122
SWIDTH 560 0
DWIDTH 6 0
BBX 5 6 0 0
BITMAP
F8
98
30
60
C8
F8
ENDCHAR

STARTCHAR braceleft
ENCODING 123
SWIDTH 320 0
DWIDTH 3 0
BBX 3 9 0 -1
BITMAP
60
40
40
40
80
40
40
40
60
ENDCHAR

STARTCHAR bar
ENCODING 124
SWIDTH 600 0
DWIDTH 6 0
BBX 1 8 3 0
BITMAP
80
80
80
80
80
80
80
80
ENDCHAR

STARTCHAR braceright
ENCODING 125
SWIDTH 320 0
DWIDTH 3 0
BBX 3 9 0 -1
BITMAP
C0
40
40
40
20
40
40
40
C0
ENDCHAR

STARTCHAR asciitilde
ENCODING 126
SWIDTH 600 0
DWIDTH 6 0
BBX 5 2 1 1
BITMAP
E8
B8
ENDCHAR

STARTCHAR exclamdown
ENCODING 161
SWIDTH 360 0
DWIDTH 4 0
BBX 2 8 1 -2
BITMAP
C0
C0
40
40
40
C0
C0
C0
ENDCHAR

STARTCHAR cent
ENCODING 162
SWIDTH 660 0
DWIDTH 7 0
BBX 4 7 1 1
BITMAP
20
70
D0
80
D0
70
20
ENDCHAR

STARTCHAR sterling
ENCODING 163
SWIDTH 660 0
DWIDTH 7 0
BBX 5 8 1 0
BITMAP
38
68
20
70
20
20
F8
D8
ENDCHAR

STARTCHAR currency
ENCODING 164
SWIDTH 660 0
DWIDTH 6 0
BBX 5 6 1 1
BITMAP
F8
D8
88
88
D8
F8
ENDCHAR

STARTCHAR yen
ENCODING 165
SWIDTH 660 0
DWIDTH 7 0
BBX 8 8 0 0
BITMAP
FF
66
24
7E
18
7E
18
3C
ENDCHAR

STARTCHAR brokenbar
ENCODING 166
SWIDTH 600 0
DWIDTH 6 0
BBX 1 8 3 0
BITMAP
80
80
80
80
00
80
80
80
ENDCHAR

STARTCHAR section
ENCODING 167
SWIDTH 600 0
DWIDTH 6 0
BBX 6 9 0 -1
BITMAP
78
4C
E0
FC
CC
F8
1C
CC
78
ENDCHAR

STARTCHAR dieresis
ENCODING 168
SWIDTH 500 0
DWIDTH 5 0
BBX 4 2 1 6
BITMAP
90
90
ENDCHAR

STARTCHAR copyright
ENCODING 169
SWIDTH 740 0
DWIDTH 7 0
BBX 7 8 0 0
BITMAP
38
44
BA
A2
A2
BA
44
38
ENDCHAR

STARTCHAR ordfeminine
ENCODING 170
SWIDTH 400 0
DWIDTH 4 0
BBX 4 5 0 3
BITMAP
E0
20
F0
F0
F0
ENDCHAR

STARTCHAR guillemotleft
ENCODING 171
SWIDTH 400 0
DWIDTH 4 0
BBX 4 4 0 1
BITMAP
50
A0
A0
50
ENDCHAR

STARTCHAR logicalnot
ENCODING 172
SWIDTH 600 0
DWIDTH 6 0
BBX 5 3 1 1
BITMAP
F8
08
08
ENDCHAR

STARTCHAR hyphen
ENCODING 173
SWIDTH 360 0
DWIDTH 4 0
BBX 3 1 0 2
BITMAP
E0
ENDCHAR

STARTCHAR registered
ENCODING 174
SWIDTH 740 0
DWIDTH 7 0
BBX 7 8 0 0
BITMAP
38
7C
AA
B2
BA
AA
44
38
ENDCHAR

STARTCHAR macron
ENCODING 175
SWIDTH 460 0
DWIDTH 5 0
BBX 3 1 1 7
BITMAP
E0
ENDCHAR

STARTCHAR degree
ENCODING 176
SWIDTH 400 0
DWIDTH 4 0
BBX 4 4 0 4
BITMAP
60
90
90
60
ENDCHAR

STARTCHAR plusminus
ENCODING 177
SWIDTH 600 0
DWIDTH 6 0
BBX 5 6 1 0
BITMAP
20
20
F8
20
20
F8
ENDCHAR

STARTCHAR twosuperior
ENCODING 178
SWIDTH 396 0
DWIDTH 4 0
BBX 3 4 -3 4
BITMAP
E0
A0
60
E0
ENDCHAR

STARTCHAR threesuperior
ENCODING 179
SWIDTH 396 0
DWIDTH 4 0
BBX 3 4 -3 4
BITMAP
E0
A0
60
E0
ENDCHAR

STARTCHAR acute
ENCODING 180
SWIDTH 400 0
DWIDTH 4 0
BBX 3 2 0 6
BITMAP
60
C0
ENDCHAR

STARTCHAR mu
ENCODING 181
SWIDTH 660 0
DWIDTH 7 0
BBX 7 8 0 -2
BITMAP
FC
6C
6C
6C
6C
7E
60
60
ENDCHAR

STARTCHAR paragraph
ENCODING 182
SWIDTH 800 0
DWIDTH 8 0
BBX 8 9 0 -1
BITMAP
7F
F6
F6
F6
36
36
36
36
7F
ENDCHAR

STARTCHAR periodcentered
ENCODING 183
SWIDTH 340 0
DWIDTH 5 0
BBX 2 2 2 3
BITMAP
C0
C0
ENDCHAR

STARTCHAR cedilla
ENCODING 184
SWIDTH 360 0
DWIDTH 4 0
BBX 2 2 1 -2
BITMAP
40
C0
ENDCHAR

STARTCHAR onesuperior
ENCODING 185
SWIDTH 396 0
DWIDTH 4 0
BBX 3 4 -4 4
BITMAP
C0
40
40
E0
ENDCHAR

STARTCHAR ordmasculine
ENCODING 186
SWIDTH 400 0
DWIDTH 4 0
BBX 3 5 1 3
BITMAP
E0
A0
E0
00
E0
ENDCHAR

STARTCHAR guillemotright
ENCODING 187
SWIDTH 400 0
DWIDTH 4 0
BBX 4 4 0 1
BITMAP
A0
50
50
A0
ENDCHAR

STARTCHAR onequarter
ENCODING 188
SWIDTH 990 0
DWIDTH 9 0
BBX 8 8 -4 0
BITMAP
C4
48
48
F0
16
26
2F
47
ENDCHAR

STARTCHAR onehalf
ENCODING 189
SWIDTH 990 0
DWIDTH 9 0
BBX 8 8 -4 0
BITMAP
C4
48
48
F0
17
25
23
47
ENDCHAR

STARTCHAR threequarters
ENCODING 190
SWIDTH 990 0
DWIDTH 9 0
BBX 9 8 -3 0
BITMAP
E200
A400
6400
E800
0B00
1300
1780
2380
ENDCHAR

STARTCHAR questiondown
ENCODING 191
SWIDTH 660 0
DWIDTH 7 0
BBX 5 8 1 -2
BITMAP
60
60
60
E0
C0
D8
D8
70
ENDCHAR

STARTCHAR Agrave
ENCODING 192
SWIDTH 720 0
DWIDTH 7 0
BBX 8 10 0 0
BITMAP
30
18
18
1C
3C
2C
7E
46
46
EF
ENDCHAR

STARTCHAR Aacute
ENCODING 193
SWIDTH 720 0
DWIDTH 7 0
BBX 8 10 0 0
BITMAP
18
20
18
1C
3C
2C
7E
46
46
EF
ENDCHAR

STARTCHAR Acircumflex
ENCODING 194
SWIDTH 720 0
DWIDTH 7 0
BBX 8 10 0 0
BITMAP
18
24
18
1C
3C
2C
7E
46
46
EF
ENDCHAR

STARTCHAR Atilde
ENCODING 195
SWIDTH 720 0
DWIDTH 7 0
BBX 8 9 0 0
BITMAP
2A
54
1C
3C
2C
7E
46
46
EF
ENDCHAR

STARTCHAR Adieresis
ENCODING 196
SWIDTH 720 0
DWIDTH 7 0
BBX 8 10 0 0
BITMAP
6C
6C
18
1C
3C
2C
7E
46
46
EF
ENDCHAR

STARTCHAR Aring
ENCODING 197
SWIDTH 720 0
DWIDTH 7 0
BBX 8 10 0 0
BITMAP
18
18
18
1C
3C
2C
3E
46
46
EF
ENDCHAR

STARTCHAR AE
ENCODING 198
SWIDTH 1140 0
DWIDTH 11 0
BBX 12 8 0 0
BITMAP
03E0
0710
0B40
0BC0
1F40
3300
6310
F7E0
ENDCHAR

STARTCHAR Ccedilla
ENCODING 199
SWIDTH 740 0
DWIDTH 7 0
BBX 7 10 0 -2
BITMAP
3C
66
C2
C0
C0
C2
66
38
30
30
ENDCHAR

STARTCHAR Egrave
ENCODING 200
SWIDTH 720 0
DWIDTH 7 0
BBX 7 10 0 0
BITMAP
30
18
FC
62
6A
78
68
62
62
FC
ENDCHAR

STARTCHAR Eacute
ENCODING 201
SWIDTH 720 0
DWIDTH 7 0
BBX 7 10 0 0
BITMAP
18
30
FC
62
6A
78
68
62
62
FC
ENDCHAR

STARTCHAR Ecircumflex
ENCODING 202
SWIDTH 720 0
DWIDTH 7 0
BBX 7 10 0 0
BITMAP
18
24
FC
62
6A
78
68
62
62
FC
ENDCHAR

STARTCHAR Edieresis
ENCODING 203
SWIDTH 720 0
DWIDTH 7 0
BBX 7 10 0 0
BITMAP
6C
6C
FC
62
6A
78
68
62
62
FC
ENDCHAR

STARTCHAR Igrave
ENCODING 204
SWIDTH 400 0
DWIDTH 4 0
BBX 4 10 0 0
BITMAP
C0
60
F0
60
60
60
60
60
60
F0
ENDCHAR

STARTCHAR Iacute
ENCODING 205
SWIDTH 400 0
DWIDTH 4 0
BBX 4 10 0 0
BITMAP
60
C0
F0
60
60
60
60
60
60
F0
ENDCHAR

STARTCHAR Icircumflex
ENCODING 206
SWIDTH 400 0
DWIDTH 4 0
BBX 4 10 0 0
BITMAP
60
90
F0
60
60
60
60
60
60
F0
ENDCHAR

STARTCHAR Idieresis
ENCODING 207
SWIDTH 400 0
DWIDTH 4 0
BBX 4 10 0 0
BITMAP
90
90
F0
60
60
60
60
60
60
F0
ENDCHAR

STARTCHAR Eth
ENCODING 208
SWIDTH 780 0
DWIDTH 8 0
BBX 8 8 0 0
BITMAP
FC
66
63
FB
63
63
66
FC
ENDCHAR

STARTCHAR Ntilde
ENCODING 209
SWIDTH 740 0
DWIDTH 7 0
BBX 7 9 0 0
BITMAP
74
CE
74
74
7C
5C
5C
4C
EC
ENDCHAR

STARTCHAR Ograve
ENCODING 210
SWIDTH 800 0
DWIDTH 8 0
BBX 7 10 1 0
BITMAP
30
18
38
6C
C6
C6
C6
C6
6C
38
ENDCHAR

STARTCHAR Oacute
ENCODING 211
SWIDTH 800 0
DWIDTH 8 0
BBX 7 10 1 0
BITMAP
18
30
38
6C
C6
C6
C6
C6
6C
38
ENDCHAR

STARTCHAR Ocircumflex
ENCODING 212
SWIDTH 800 0
DWIDTH 8 0
BBX 7 10 1 0
BITMAP
38
44
38
6C
C6
C6
C6
C6
6C
38
ENDCHAR

STARTCHAR Otilde
ENCODING 213
SWIDTH 800 0
DWIDTH 8 0
BBX 7 9 1 0
BITMAP
2C
58
6C
C6
C6
C6
C6
6C
38
ENDCHAR

STARTCHAR Odieresis
ENCODING 214
SWIDTH 800 0
DWIDTH 8 0
BBX 7 10 1 0
BITMAP
6C
6C
38
6C
C6
C6
C6
C6
6C
38
ENDCHAR

STARTCHAR multiply
ENCODING 215
SWIDTH 600 0
DWIDTH 6 0
BBX 4 4 1 2
BITMAP
90
60
60
90
ENDCHAR

STARTCHAR Oslash
ENCODING 216
SWIDTH 800 0
DWIDTH 8 0
BBX 7 8 1 0
BITMAP
3C
6C
CE
D6
D6
E6
6C
78
ENDCHAR

STARTCHAR Ugrave
ENCODING 217
SWIDTH 740 0
DWIDTH 7 0
BBX 7 10 0 0
BITMAP
30
18
EE
64
64
64
64
64
64
38
ENDCHAR

STARTCHAR Uacute
ENCODING 218
SWIDTH 740 0
DWIDTH 7 0
BBX 7 10 0 0
BITMAP
18
30
FE
64
64
64
64
64
64
38
ENDCHAR

STARTCHAR Ucircumflex
ENCODING 219
SWIDTH 740 0
DWIDTH 7 0
BBX 7 10 0 0
BITMAP
30
48
FE
64
64
64
64
64
64
38
ENDCHAR

STARTCHAR Udieresis
ENCODING 220
SWIDTH 740 0
DWIDTH 7 0
BBX 7 10 0 0
BITMAP
6C
6C
EE
64
64
64
64
64
64
38
ENDCHAR

STARTCHAR Yacute
ENCODING 221
SWIDTH 700 0
DWIDTH 7 0
BBX 8 10 0 0
BITMAP
0C
18
E7
62
34
3C
18
18
18
3C
ENDCHAR

STARTCHAR Thorn
ENCODING 222
SWIDTH 660 0
DWIDTH 7 0
BBX 7 8 0 0
BITMAP
F0
60
7C
66
66
7C
60
F0
ENDCHAR

STARTCHAR germandbls
ENCODING 223
SWIDTH 660 0
DWIDTH 7 0
BBX 8 10 0 -1
BITMAP
1E
33
33
76
37
33
33
33
3E
E0
ENDCHAR

STARTCHAR agrave
ENCODING 224
SWIDTH 580 0
DWIDTH 6 0
BBX 6 8 0 0
BITMAP
60
30
70
D8
D8
D8
D8
6C
ENDCHAR

STARTCHAR aacute
ENCODING 225
SWIDTH 580 0
DWIDTH 6 0
BBX 6 8 0 0
BITMAP
30
60
70
D8
D8
D8
D8
6C
ENDCHAR

STARTCHAR acircumflex
ENCODING 226
SWIDTH 580 0
DWIDTH 6 0
BBX 6 8 0 0
BITMAP
30
48
70
D8
D8
D8
D8
6C
ENDCHAR

STARTCHAR atilde
ENCODING 227
SWIDTH 580 0
DWIDTH 6 0
BBX 6 7 0 0
BITMAP
68
50
D8
D8
D8
D8
6C
ENDCHAR

STARTCHAR adieresis
ENCODING 228
SWIDTH 580 0
DWIDTH 6 0
BBX 6 8 0 0
BITMAP
D8
D8
70
D8
D8
D8
D8
6C
ENDCHAR

STARTCHAR aring
ENCODING 229
SWIDTH 580 0
DWIDTH 6 0
BBX 6 8 0 0
BITMAP
70
50
70
D8
D8
D8
D8
6C
ENDCHAR

STARTCHAR ae
ENCODING 230
SWIDTH 880 0
DWIDTH 9 0
BBX 9 6 0 0
BITMAP
7700
D980
DF80
D800
DC80
7700
ENDCHAR

STARTCHAR ccedilla
ENCODING 231
SWIDTH 580 0
DWIDTH 6 0
BBX 5 8 0 -2
BITMAP
78
D8
C0
C0
C8
70
60
60
ENDCHAR

STARTCHAR egrave
ENCODING 232
SWIDTH 580 0
DWIDTH 6 0
BBX 5 8 0 0
BITMAP
60
30
70
D8
F8
C0
C8
70
ENDCHAR

STARTCHAR eacute
ENCODING 233
SWIDTH 580 0
DWIDTH 6 0
BBX 5 8 0 0
BITMAP
30
60
70
D8
F8
C0
C8
70
ENDCHAR

STARTCHAR ecircumflex
ENCODING 234
SWIDTH 580 0
DWIDTH 6 0
BBX 5 8 0 0
BITMAP
70
88
70
D8
F8
C0
C8
70
ENDCHAR

STARTCHAR edieresis
ENCODING 235
SWIDTH 580 0
DWIDTH 6 0
BBX 5 8 0 0
BITMAP
D8
D8
70
D8
F8
C0
C8
70
ENDCHAR

STARTCHAR igrave
ENCODING 236
SWIDTH 360 0
DWIDTH 4 0
BBX 4 8 0 0
BITMAP
C0
60
F0
60
60
60
60
F0
ENDCHAR

STARTCHAR iacute
ENCODING 237
SWIDTH 360 0
DWIDTH 4 0
BBX 4 8 0 0
BITMAP
60
C0
F0
60
60
60
60
F0
ENDCHAR

STARTCHAR icircumflex
ENCODING 238
SWIDTH 360 0
DWIDTH 4 0
BBX 4 8 0 0
BITMAP
60
90
F0
60
60
60
60
F0
ENDCHAR

STARTCHAR idieresis
ENCODING 239
SWIDTH 360 0
DWIDTH 4 0
BBX 4 8 0 0
BITMAP
90
90
F0
60
60
60
60
F0
ENDCHAR

STARTCHAR eth
ENCODING 240
SWIDTH 620 0
DWIDTH 6 0
BBX 6 9 0 0
BITMAP
10
F0
98
78
CC
CC
CC
CC
78
ENDCHAR

STARTCHAR ntilde
ENCODING 241
SWIDTH 680 0
DWIDTH 7 0
BBX 7 7 0 0
BITMAP
6C
BC
7C
6C
6C
6C
FE
ENDCHAR

STARTCHAR ograve
ENCODING 242
SWIDTH 620 0
DWIDTH 6 0
BBX 6 8 0 0
BITMAP
60
30
78
CC
CC
CC
CC
78
ENDCHAR

STARTCHAR oacute
ENCODING 243
SWIDTH 620 0
DWIDTH 6 0
BBX 6 8 0 0
BITMAP
30
60
78
CC
CC
CC
CC
78
ENDCHAR

STARTCHAR ocircumflex
ENCODING 244
SWIDTH 620 0
DWIDTH 6 0
BBX 6 8 0 0
BITMAP
30
48
78
CC
CC
CC
CC
78
ENDCHAR

STARTCHAR otilde
ENCODING 245
SWIDTH 620 0
DWIDTH 6 0
BBX 6 7 0 0
BITMAP
68
78
CC
CC
CC
CC
78
ENDCHAR

STARTCHAR odieresis
ENCODING 246
SWIDTH 620 0
DWIDTH 6 0
BBX 6 8 0 0
BITMAP
48
48
78
CC
CC
CC
CC
78
ENDCHAR

STARTCHAR divide
ENCODING 247
SWIDTH 600 0
DWIDTH 6 0
BBX 6 5 0 2
BITMAP
30
00
FC
00
30
ENDCHAR

STARTCHAR oslash
ENCODING 248
SWIDTH 620 0
DWIDTH 6 0
BBX 6 6 0 0
BITMAP
7C
CC
DC
EC
CC
78
ENDCHAR

STARTCHAR ugrave
ENCODING 249
SWIDTH 660 0
DWIDTH 7 0
BBX 7 8 0 0
BITMAP
30
18
FC
6C
6C
6C
6C
7E
ENDCHAR

STARTCHAR uacute
ENCODING 250
SWIDTH 660 0
DWIDTH 7 0
BBX 7 8 0 0
BITMAP
18
30
FC
6C
6C
6C
6C
7E
ENDCHAR

STARTCHAR ucircumflex
ENCODING 251
SWIDTH 660 0
DWIDTH 7 0
BBX 7 8 0 0
BITMAP
30
48
FC
6C
6C
6C
6C
7E
ENDCHAR

STARTCHAR udieresis
ENCODING 252
SWIDTH 660 0
DWIDTH 7 0
BBX 7 8 0 0
BITMAP
6C
00
EC
6C
6C
6C
6C
7E
ENDCHAR

STARTCHAR yacute
ENCODING 253
SWIDTH 620 0
DWIDTH 6 0
BBX 6 10 0 -2
BITMAP
18
30
FC
68
78
30
30
20
E0
C0
ENDCHAR

STARTCHAR thorn
ENCODING 254
SWIDTH 640 0
DWIDTH 6 0
BBX 7 10 0 -2
BITMAP
E0
60
7C
66
66
66
66
7C
60
F0
ENDCHAR

STARTCHAR ydieresis
ENCODING 255
SWIDTH 620 0
DWIDTH 6 0
BBX 6 10 0 -2
BITMAP
6C
6C
EC
68
78
30
30
20
E0
C0
ENDCHAR
ENDFONT
